<svg data-v-fde0c5aa="" xmlns="http://www.w3.org/2000/svg" viewBox="0 0 300 300" class="font"><!----><defs data-v-fde0c5aa=""><!----></defs><rect data-v-fde0c5aa="" fill="transparent" x="0" y="0" width="300px" height="300px" class="logo-background-square"></rect><defs data-v-fde0c5aa=""><linearGradient data-v-fde0c5aa="" gradientTransform="rotate(25)" id="f57be131-f450-4352-b958-a4aa1038f748" x1="0%" y1="0%" x2="100%" y2="0%"><stop data-v-fde0c5aa="" offset="0%" stop-color="#968ABF" stop-opacity="1"></stop><stop data-v-fde0c5aa="" offset="100%" stop-color="#E4A8AA" stop-opacity="1"></stop></linearGradient></defs><g data-v-fde0c5aa="" id="7fa52db2-fe9b-4b74-adb2-479013d471bf" fill="url(#f57be131-f450-4352-b958-a4aa1038f748)" transform="matrix(2.806480440272225,0,0,2.806480440272225,40.3929072633109,125.61168414432917)"><path d="M2.38 11.58L1.99 12.77L2.94 13.09L2.94 13.72L-0.14 13.72L-0.14 13.10L0.85 12.75L3.50 5.12L4.59 4.94L7.46 12.75L8.46 13.09L8.46 13.72L4.56 13.72L4.56 13.09L5.47 12.81L5.07 11.58L2.38 11.58ZM4.79 10.82L3.67 7.80L2.65 10.82L4.79 10.82ZM11.70 4.91L11.70 4.91Q12.81 4.91 13.50 5.40L13.50 5.40L13.50 5.40Q14.20 5.89 14.20 6.83L14.20 6.83L14.20 6.83Q14.20 7.56 13.78 8.13L13.78 8.13L13.78 8.13Q13.36 8.69 12.66 9.04L12.66 9.04L12.66 9.04Q13.57 9.24 14.08 9.84L14.08 9.84L14.08 9.84Q14.60 10.43 14.60 11.27L14.60 11.27L14.60 11.27Q14.60 12.57 13.78 13.23L13.78 13.23L13.78 13.23Q12.95 13.89 11.33 13.89L11.33 13.89L11.33 13.89Q10.05 13.89 8.67 13.37L8.67 13.37L8.95 12.40L8.95 12.40Q10.28 12.85 10.99 12.85L10.99 12.85L10.99 12.85Q11.72 12.85 12.21 12.45L12.21 12.45L12.21 12.45Q12.71 12.05 12.71 11.27L12.71 11.27L12.71 11.27Q12.71 10.29 12.05 9.97L12.05 9.97L12.05 9.97Q11.40 9.65 10.33 9.65L10.33 9.65L10.28 8.85L10.28 8.85Q12.36 8.61 12.36 7.10L12.36 7.10L12.36 7.10Q12.36 6.57 12.09 6.30L12.09 6.30L12.09 6.30Q11.82 6.03 11.21 6.03L11.21 6.03L11.21 6.03Q10.85 6.03 10.28 6.15L10.28 6.15L10.28 6.15Q9.72 6.27 9.14 6.54L9.14 6.54L8.74 5.68L8.74 5.68Q9.27 5.35 10.11 5.13L10.11 5.13L10.11 5.13Q10.95 4.91 11.70 4.91L11.70 4.91ZM15.65 7.35L15.55 5.12L22.90 5.12L22.82 7.35L22.02 7.35L21.74 6.08L20.17 6.08L20.17 12.75L21.36 13.09L21.36 13.72L17.11 13.72L17.11 13.09L18.28 12.75L18.28 6.08L16.69 6.08L16.42 7.35L15.65 7.35ZM26.71 13.86L26.71 13.86Q23.35 13.86 23.35 10.30L23.35 10.30L23.35 10.30Q23.35 8.37 24.25 7.53L24.25 7.53L24.25 7.53Q25.14 6.69 26.57 6.69L26.57 6.69L26.57 6.69Q28.04 6.69 28.71 7.34L28.71 7.34L28.71 7.34Q29.39 7.99 29.39 9.38L29.39 9.38L29.39 9.38Q29.39 9.98 29.33 10.30L29.33 10.30L25.38 10.30L25.38 10.64L25.38 10.64Q25.38 11.87 25.84 12.34L25.84 12.34L25.84 12.34Q26.31 12.81 27.27 12.81L27.27 12.81L27.27 12.81Q28.00 12.81 29.20 12.47L29.20 12.47L29.32 13.09L29.32 13.09Q28.29 13.86 26.71 13.86L26.71 13.86ZM25.41 9.55L27.48 9.39L27.48 9.10L27.48 9.10Q27.48 8.40 27.31 8.03L27.31 8.03L27.31 8.03Q27.15 7.66 26.64 7.66L26.64 7.66L26.64 7.66Q25.94 7.66 25.69 8.11L25.69 8.11L25.69 8.11Q25.44 8.57 25.41 9.55L25.41 9.55ZM33.31 13.86L33.31 13.86Q31.67 13.86 30.88 12.87L30.88 12.87L30.88 12.87Q30.09 11.87 30.09 10.30L30.09 10.30L30.09 10.30Q30.09 8.68 30.87 7.69L30.87 7.69L30.87 7.69Q31.65 6.69 33.31 6.69L33.31 6.69L33.31 6.69Q34.01 6.69 34.58 6.80L34.58 6.80L34.58 6.80Q35.15 6.92 35.77 7.14L35.77 7.14L35.49 9.10L34.66 9.10L34.37 7.81L34.37 7.81Q33.92 7.63 33.52 7.63L33.52 7.63L33.52 7.63Q32.69 7.63 32.40 8.32L32.40 8.32L32.40 8.32Q32.12 9.00 32.12 10.28L32.12 10.28L32.12 10.28Q32.12 11.30 32.28 11.84L32.28 11.84L32.28 11.84Q32.45 12.39 32.78 12.60L32.78 12.60L32.78 12.60Q33.11 12.81 33.66 12.81L33.66 12.81L33.66 12.81Q34.52 12.81 35.69 12.47L35.69 12.47L35.80 13.09L35.80 13.09Q35.34 13.43 34.67 13.64L34.67 13.64L34.67 13.64Q34.01 13.86 33.31 13.86L33.31 13.86ZM44.55 13.72L40.71 13.72L40.71 13.09L41.55 12.74L41.55 8.62L41.55 8.62Q41.55 8.13 41.38 7.98L41.38 7.98L41.38 7.98Q41.20 7.83 40.64 7.83L40.64 7.83L40.64 7.83Q39.83 7.83 39.24 7.99L39.24 7.99L39.24 12.74L40.08 13.09L40.08 13.72L36.26 13.72L36.26 13.02L37.35 12.74L37.35 4.86L36.26 4.70L36.26 4.03L38.63 3.49L39.24 3.49L39.24 7.25L39.24 7.25Q39.65 7.06 40.40 6.87L40.40 6.87L40.40 6.87Q41.16 6.69 41.73 6.69L41.73 6.69L41.73 6.69Q42.48 6.69 42.96 7.05L42.96 7.05L42.96 7.05Q43.44 7.41 43.44 8.15L43.44 8.15L43.44 12.74L44.55 13.09L44.55 13.72ZM45.30 7.49L45.30 7.49Q45.30 6.27 46.09 5.60L46.09 5.60L46.09 5.60Q46.87 4.93 48.29 4.93L48.29 4.93L48.29 4.93Q49.56 4.93 50.74 5.31L50.74 5.31L50.58 7.34L49.84 7.34L49.53 6.06L49.53 6.06Q49.36 6.01 49.02 5.96L49.02 5.96L49.02 5.96Q48.68 5.91 48.45 5.91L48.45 5.91L48.45 5.91Q47.75 5.91 47.33 6.17L47.33 6.17L47.33 6.17Q46.90 6.43 46.90 7.03L46.90 7.03L46.90 7.03Q46.90 7.52 47.22 7.83L47.22 7.83L47.22 7.83Q47.53 8.15 48.13 8.40L48.13 8.40L49.41 8.93L49.41 8.93Q50.26 9.30 50.65 9.86L50.65 9.86L50.65 9.86Q51.03 10.42 51.03 11.21L51.03 11.21L51.03 11.21Q51.03 12.45 50.19 13.15L50.19 13.15L50.19 13.15Q49.35 13.85 47.74 13.85L47.74 13.85L47.74 13.85Q47.11 13.85 46.40 13.73L46.40 13.73L46.40 13.73Q45.70 13.62 45.15 13.41L45.15 13.41L45.36 11.41L46.14 11.41L46.37 12.63L46.37 12.63Q47.10 12.84 47.71 12.84L47.71 12.84L47.71 12.84Q48.45 12.84 48.88 12.56L48.88 12.56L48.88 12.56Q49.31 12.28 49.31 11.76L49.31 11.76L49.31 11.76Q49.31 11.28 49.04 11.00L49.04 11.00L49.04 11.00Q48.76 10.72 48.10 10.43L48.10 10.43L46.82 9.87L46.82 9.87Q46.20 9.60 45.75 9.02L45.75 9.02L45.75 9.02Q45.30 8.43 45.30 7.49L45.30 7.49ZM55.94 13.54L55.94 13.54Q55.51 13.68 54.93 13.76L54.93 13.76L54.93 13.76Q54.35 13.85 53.94 13.85L53.94 13.85L53.94 13.85Q53.21 13.85 52.96 13.54L52.96 13.54L52.96 13.54Q52.70 13.24 52.70 12.75L52.70 12.75L52.70 7.84L51.69 7.84L51.69 7.18L52.85 6.66L53.70 5.26L54.56 5.26L54.56 6.83L56.14 6.83L56.14 7.92L54.56 7.83L54.56 12.53L55.94 12.84L55.94 13.54ZM59.63 7.76L59.63 7.76Q59.09 7.76 58.62 7.92L58.62 7.92L58.31 9.10L57.48 9.10L57.25 7.21L57.25 7.21Q58.65 6.69 60.14 6.69L60.14 6.69L60.14 6.69Q61.28 6.69 61.85 7.07L61.85 7.07L61.85 7.07Q62.41 7.45 62.41 8.44L62.41 8.44L62.41 12.56L63.50 12.95L63.50 13.55L63.50 13.55Q62.94 13.69 62.64 13.74L62.64 13.74L62.64 13.74Q62.33 13.79 61.96 13.79L61.96 13.79L61.96 13.79Q61.47 13.79 61.08 13.60L61.08 13.60L61.08 13.60Q60.68 13.41 60.56 13.05L60.56 13.05L60.56 13.05Q60.00 13.47 59.53 13.66L59.53 13.66L59.53 13.66Q59.05 13.86 58.49 13.86L58.49 13.86L58.49 13.86Q57.72 13.86 57.28 13.40L57.28 13.40L57.28 13.40Q56.84 12.94 56.84 12.14L56.84 12.14L56.84 12.14Q56.84 11.47 57.25 10.89L57.25 10.89L57.25 10.89Q57.67 10.30 58.63 10.11L58.63 10.11L60.52 9.72L60.52 8.74L60.52 8.74Q60.52 8.19 60.32 7.97L60.32 7.97L60.32 7.97Q60.12 7.76 59.63 7.76L59.63 7.76ZM59.68 10.74L59.68 10.74Q59.14 10.88 58.91 11.17L58.91 11.17L58.91 11.17Q58.69 11.47 58.69 11.94L58.69 11.94L58.69 11.94Q58.69 12.73 59.42 12.73L59.42 12.73L59.42 12.73Q59.68 12.73 60.00 12.61L60.00 12.61L60.00 12.61Q60.31 12.49 60.52 12.35L60.52 12.35L60.52 10.53L59.68 10.74ZM67.16 13.86L67.16 13.86Q65.52 13.86 64.73 12.87L64.73 12.87L64.73 12.87Q63.94 11.87 63.94 10.30L63.94 10.30L63.94 10.30Q63.94 8.68 64.72 7.69L64.72 7.69L64.72 7.69Q65.51 6.69 67.16 6.69L67.16 6.69L67.16 6.69Q67.86 6.69 68.43 6.80L68.43 6.80L68.43 6.80Q69.01 6.92 69.62 7.14L69.62 7.14L69.34 9.10L68.52 9.10L68.22 7.81L68.22 7.81Q67.77 7.63 67.37 7.63L67.37 7.63L67.37 7.63Q66.54 7.63 66.26 8.32L66.26 8.32L66.26 8.32Q65.97 9.00 65.97 10.28L65.97 10.28L65.97 10.28Q65.97 11.30 66.14 11.84L66.14 11.84L66.14 11.84Q66.30 12.39 66.63 12.60L66.63 12.60L66.63 12.60Q66.96 12.81 67.51 12.81L67.51 12.81L67.51 12.81Q68.38 12.81 69.54 12.47L69.54 12.47L69.65 13.09L69.65 13.09Q69.19 13.43 68.52 13.64L68.52 13.64L68.52 13.64Q67.86 13.86 67.16 13.86L67.16 13.86ZM73.93 12.99L73.93 13.72L70.11 13.72L70.11 13.02L71.20 12.74L71.20 4.86L70.11 4.70L70.11 4.03L72.46 3.49L73.09 3.49L73.09 12.74L73.93 12.99ZM78.25 12.99L78.25 13.72L74.68 13.72L74.68 12.99L75.28 12.75L73.16 10.11L75.11 7.74L74.20 7.53L74.20 6.83L77.78 6.83L77.78 7.53L76.47 7.78L74.97 9.59L77.48 12.73L78.25 12.99Z"></path></g><!----><!----></svg>